<svg xmlns="http://www.w3.org/2000/svg" viewBox="0 0 818.8 433.3" enable-background="new 0 0 818.8 433.3"><g fill="#fff"><path d="M174.8 197.1l-11-27.8H109l-10.4 27.8H61.4l59.4-141.6H154l58.8 141.6h-38zm-38-103.8l-18 48.6h35.6l-17.6-48.6zM225.8 197.1v-29.7l67.4-83.2h-65.8V55.5H336v27.4l-69 84.6h70.4v29.6H225.8zM475.4 167c-2.9 7-7 13-12.3 18-5.3 5-11.8 8.9-19.3 11.7-7.5 2.8-15.9 4.2-25.1 4.2-9.3 0-17.7-1.4-25.2-4.2-7.5-2.8-13.8-6.7-19-11.7-5.2-5-9.2-11-12-18s-4.2-14.8-4.2-23.3V55.5h34v85.4c0 3.9.5 7.5 1.5 11s2.5 6.6 4.6 9.3c2.1 2.7 4.8 4.9 8.2 6.5 3.4 1.6 7.5 2.4 12.3 2.4s8.9-.8 12.3-2.4c3.4-1.6 6.2-3.8 8.3-6.5 2.1-2.7 3.7-5.8 4.6-9.3.9-3.5 1.4-7.1 1.4-11V55.5h34.2v88.2c0 8.5-1.4 16.3-4.3 23.3zM582.1 92.3c-2.9-3.7-6.8-6.7-11.5-8.9s-9.3-3.3-13.7-3.3c-2.3 0-4.6.2-6.9.6-2.3.4-4.4 1.2-6.3 2.3-1.9 1.1-3.4 2.6-4.7 4.4-1.3 1.8-1.9 4.1-1.9 6.9 0 2.4.5 4.4 1.5 6 1 1.6 2.5 3 4.4 4.2 1.9 1.2 4.2 2.3 6.9 3.3s5.7 2 9 3.1c4.8 1.6 9.8 3.4 15 5.3 5.2 1.9 9.9 4.5 14.2 7.7 4.3 3.2 7.8 7.2 10.6 11.9s4.2 10.6 4.2 17.7c0 8.1-1.5 15.2-4.5 21.1-3 5.9-7 10.8-12.1 14.7-5.1 3.9-10.9 6.7-17.4 8.6-6.5 1.9-13.3 2.8-20.2 2.8-10.1 0-19.9-1.8-29.4-5.3s-17.3-8.6-23.6-15.1l22.4-22.8c3.5 4.3 8 7.8 13.7 10.7 5.7 2.9 11.3 4.3 16.9 4.3 2.5 0 5-.3 7.4-.8 2.4-.5 4.5-1.4 6.3-2.6 1.8-1.2 3.2-2.8 4.3-4.8 1.1-2 1.6-4.4 1.6-7.2 0-2.7-.7-4.9-2-6.8-1.3-1.9-3.2-3.6-5.7-5.1-2.5-1.5-5.5-2.9-9.2-4.2-3.7-1.3-7.8-2.6-12.5-4.1-4.5-1.5-9-3.2-13.3-5.2-4.3-2-8.2-4.6-11.6-7.7-3.4-3.1-6.1-6.9-8.2-11.4-2.1-4.5-3.1-9.9-3.1-16.3 0-7.9 1.6-14.6 4.8-20.2 3.2-5.6 7.4-10.2 12.6-13.8 5.2-3.6 11.1-6.2 17.6-7.9 6.5-1.7 13.1-2.5 19.8-2.5 8 0 16.2 1.5 24.5 4.4 8.3 2.9 15.6 7.3 21.9 13l-21.8 23zM721.6 197.1l-11-27.8h-54.8l-10.4 27.8h-37.2l59.4-141.6h33.2l58.8 141.6h-38zM683.5 93.3l-18 48.6h35.6l-17.6-48.6z"/></g><path fill="#02A8F3" d="M125.5 305.8c-5.6 2.5-12 3.8-19.2 3.8-6.6 0-12.7-1.1-18.3-3.3-5.6-2.2-10.5-5.3-14.6-9.2-4.1-4-7.3-8.8-9.7-14.3-2.3-5.6-3.5-11.7-3.5-18.4 0-6.8 1.2-13.1 3.6-18.6 2.4-5.6 5.7-10.3 9.8-14.2 4.2-3.9 9.1-6.9 14.7-9 5.6-2.1 11.7-3.1 18.2-3.1 6 0 12 1.1 17.8 3.2 5.8 2.1 10.6 5.3 14.2 9.4l-14 14c-1.9-2.7-4.5-4.6-7.6-5.9-3.1-1.3-6.4-1.9-9.7-1.9-3.6 0-6.9.7-10 2s-5.6 3.2-7.8 5.5-3.9 5.1-5.1 8.3c-1.2 3.2-1.8 6.7-1.8 10.5 0 3.9.6 7.4 1.8 10.6 1.2 3.2 2.9 6 5 8.3 2.1 2.3 4.7 4.1 7.7 5.4 3 1.3 6.2 1.9 9.8 1.9 4.1 0 7.7-.8 10.8-2.4 3.1-1.6 5.5-3.7 7.4-6.3l14.4 13.5c-3.7 4.2-8.4 7.6-13.9 10.2z"/><path fill="#FF5151" d="M276.9 264.2c0 6.8-1.2 13-3.5 18.5-2.3 5.6-5.6 10.4-9.7 14.4s-9.1 7.1-14.8 9.2c-5.7 2.2-11.9 3.3-18.6 3.3-6.7 0-12.9-1.1-18.5-3.3-5.7-2.2-10.6-5.3-14.7-9.2-4.2-4-7.4-8.8-9.7-14.4-2.3-5.6-3.5-11.8-3.5-18.5 0-6.8 1.2-13 3.5-18.5s5.6-10.2 9.7-14.1c4.1-3.9 9.1-6.8 14.7-8.9 5.7-2.1 11.9-3.1 18.5-3.1 6.7 0 12.9 1 18.6 3.1 5.7 2.1 10.7 5.1 14.8 8.9 4.1 3.9 7.4 8.6 9.7 14.1 2.3 5.4 3.5 11.6 3.5 18.5zm-22.2 0c0-3.7-.6-7.2-1.8-10.4-1.2-3.2-2.9-6-5-8.3-2.1-2.3-4.7-4.1-7.7-5.4-3-1.3-6.3-2-10-2-3.6 0-6.9.7-9.9 2s-5.6 3.1-7.7 5.4c-2.2 2.3-3.8 5.1-5 8.3-1.2 3.2-1.8 6.7-1.8 10.4 0 3.9.6 7.4 1.8 10.7 1.2 3.3 2.9 6.1 5 8.4 2.1 2.3 4.7 4.2 7.7 5.5 3 1.3 6.3 2 9.9 2 3.6 0 6.9-.7 9.9-2s5.6-3.2 7.7-5.5c2.2-2.3 3.9-5.1 5.1-8.4s1.8-6.9 1.8-10.7z"/><path fill="#B967C7" d="M329.9 307.3v-85.6h20.8v67.5h33.1v18h-53.9z"/><path fill="#FF9000" d="M524.4 264.2c0 6.8-1.2 13-3.5 18.5-2.3 5.6-5.6 10.4-9.7 14.4-4.2 4-9.1 7.1-14.8 9.2-5.7 2.2-11.9 3.3-18.6 3.3-6.7 0-12.9-1.1-18.5-3.3-5.7-2.2-10.6-5.3-14.7-9.2s-7.4-8.8-9.7-14.4c-2.3-5.6-3.5-11.8-3.5-18.5 0-6.8 1.2-13 3.5-18.5s5.6-10.2 9.7-14.1 9.1-6.8 14.7-8.9c5.7-2.1 11.9-3.1 18.5-3.1 6.7 0 12.9 1 18.6 3.1 5.7 2.1 10.7 5.1 14.8 8.9 4.1 3.9 7.4 8.6 9.7 14.1 2.3 5.4 3.5 11.6 3.5 18.5zm-22.1 0c0-3.7-.6-7.2-1.8-10.4-1.2-3.2-2.9-6-5-8.3-2.1-2.3-4.7-4.1-7.7-5.4-3-1.3-6.3-2-10-2s-6.9.7-9.9 2-5.6 3.1-7.7 5.4c-2.2 2.3-3.8 5.1-5 8.3-1.2 3.2-1.8 6.7-1.8 10.4 0 3.9.6 7.4 1.8 10.7s2.9 6.1 5 8.4c2.1 2.3 4.7 4.2 7.7 5.5 3 1.3 6.3 2 9.9 2s6.9-.7 9.9-2 5.6-3.2 7.7-5.5c2.2-2.3 3.9-5.1 5.1-8.4 1.2-3.3 1.8-6.9 1.8-10.7z"/><path fill="#00BBD3" d="M623.2 307.3l-18.6-34h-7v34h-20.2v-85.6H610c4.1 0 8.1.4 12 1.3 3.9.8 7.4 2.3 10.5 4.3 3.1 2 5.6 4.7 7.4 8 1.9 3.3 2.8 7.4 2.8 12.3 0 5.8-1.6 10.7-4.7 14.6-3.1 3.9-7.5 6.8-13.1 8.5l22.4 36.6h-24.1zm-.8-59.3c0-2-.4-3.6-1.3-4.9-.8-1.2-1.9-2.2-3.3-2.9-1.3-.7-2.8-1.1-4.5-1.4-1.7-.2-3.3-.4-4.8-.4h-11v19.9h9.8c1.7 0 3.4-.1 5.2-.4 1.8-.3 3.4-.8 4.9-1.5 1.5-.7 2.7-1.8 3.6-3.1.9-1.4 1.4-3.2 1.4-5.3z"/><path fill="#FF3F80" d="M746.9 244c-1.8-2.3-4.1-4-6.9-5.4-2.9-1.3-5.6-2-8.3-2-1.4 0-2.8.1-4.2.4-1.4.2-2.7.7-3.8 1.4-1.1.7-2.1 1.6-2.8 2.7-.8 1.1-1.1 2.5-1.1 4.2 0 1.5.3 2.7.9 3.6.6 1 1.5 1.8 2.7 2.5 1.2.7 2.6 1.4 4.2 2 1.6.6 3.4 1.2 5.4 1.9 2.9 1 5.9 2 9.1 3.2 3.1 1.2 6 2.7 8.6 4.7 2.6 1.9 4.7 4.3 6.4 7.2 1.7 2.9 2.5 6.4 2.5 10.7 0 4.9-.9 9.2-2.7 12.7-1.8 3.6-4.2 6.5-7.3 8.9-3.1 2.3-6.6 4.1-10.5 5.2-3.9 1.1-8 1.7-12.2 1.7-6.1 0-12-1.1-17.8-3.2-5.7-2.1-10.5-5.2-14.3-9.1l13.5-13.8c2.1 2.6 4.9 4.7 8.3 6.5 3.4 1.7 6.8 2.6 10.2 2.6 1.5 0 3-.2 4.5-.5s2.7-.8 3.8-1.6c1.1-.7 2-1.7 2.6-2.9.6-1.2 1-2.7 1-4.4 0-1.6-.4-3-1.2-4.1-.8-1.1-2-2.2-3.4-3.1-1.5-.9-3.3-1.8-5.6-2.5-2.2-.8-4.7-1.6-7.6-2.5-2.7-.9-5.4-1.9-8-3.1-2.6-1.2-5-2.8-7-4.7-2.1-1.9-3.7-4.2-5-6.9-1.2-2.7-1.9-6-1.9-9.8 0-4.8 1-8.8 2.9-12.2 1.9-3.4 4.5-6.2 7.6-8.3 3.1-2.2 6.7-3.8 10.6-4.8 3.9-1 7.9-1.5 12-1.5 4.8 0 9.8.9 14.8 2.7 5 1.8 9.4 4.4 13.2 7.9L746.9 244z"/><path fill="#33B490" d="M81.8 366.7l-10.6-13.1h-.1v13.1h-6.7v-28.5h6.7v11.6h.1l10.2-11.6H90l-12.3 13.1 13 15.4h-8.9z"/><path fill="#fff" d="M111.8 366.7v-28.5H131v5.8h-12.5v5.4h11.8v5.5h-11.8v5.9h13.3v5.9h-20zM168.9 354.6v12.1H162v-12.1l-10.7-16.4h8.3l6.1 10.6 6.1-10.6h8.1l-11 16.4zM218.9 366.7l-11.5-18.6h-.1l.2 18.6h-6.7v-28.5h7.9l11.4 18.6h.1l-.2-18.6h6.7v28.5h-7.8zM281.1 352.3c0 2.3-.4 4.3-1.2 6.2-.8 1.9-1.9 3.5-3.2 4.8-1.4 1.3-3 2.4-4.9 3.1-1.9.7-4 1.1-6.2 1.1s-4.3-.4-6.2-1.1-3.5-1.8-4.9-3.1c-1.4-1.3-2.5-2.9-3.2-4.8-.8-1.9-1.2-3.9-1.2-6.2 0-2.3.4-4.3 1.2-6.2.8-1.8 1.9-3.4 3.2-4.7 1.4-1.3 3-2.3 4.9-3 1.9-.7 4-1 6.2-1s4.3.3 6.2 1c1.9.7 3.6 1.7 4.9 3 1.4 1.3 2.5 2.9 3.2 4.7.8 1.9 1.2 3.9 1.2 6.2zm-7.4 0c0-1.2-.2-2.4-.6-3.5-.4-1.1-1-2-1.7-2.8-.7-.8-1.6-1.4-2.6-1.8-1-.4-2.1-.7-3.3-.7s-2.3.2-3.3.7c-1 .4-1.9 1-2.6 1.8-.7.8-1.3 1.7-1.7 2.8-.4 1.1-.6 2.2-.6 3.5 0 1.3.2 2.5.6 3.6.4 1.1 1 2 1.7 2.8.7.8 1.6 1.4 2.6 1.8 1 .4 2.1.7 3.3.7s2.3-.2 3.3-.7c1-.4 1.9-1.1 2.6-1.8s1.3-1.7 1.7-2.8c.4-1.1.6-2.3.6-3.6zM316.6 344.1v22.6h-6.9v-22.6h-8.1v-5.9h23v5.9h-8zM346.6 366.7v-28.5h19.2v5.8h-12.5v5.4H365v5.5h-11.8v5.9h13.3v5.9h-19.9z"/><path fill="#33B490" d="M430.8 344.1v22.6h-6.9v-22.6h-8.1v-5.9h23v5.9h-8z"/><path fill="#fff" d="M460.8 366.7v-28.5H480v5.8h-12.5v5.4h11.8v5.5h-11.8v5.9h13.3v5.9h-20zM529.9 366.7l.2-20.2h-.1l-7.4 20.2h-4.8l-7.2-20.2h-.1l.2 20.2H504v-28.5h9.8l6.5 18.3h.2l6.2-18.3h10v28.5h-6.8zM582.9 347c0 1.7-.3 3.1-.9 4.2-.6 1.1-1.5 2.1-2.5 2.8-1 .7-2.3 1.2-3.6 1.5-1.4.3-2.8.5-4.3.5h-3.4v10.8h-6.9v-28.5h10.5c1.6 0 3 .2 4.4.5 1.4.3 2.5.8 3.5 1.5s1.8 1.6 2.4 2.7c.5 1 .8 2.3.8 4zm-6.9 0c0-.7-.1-1.2-.4-1.7-.3-.4-.6-.8-1.1-1s-1-.4-1.6-.5-1.2-.1-1.8-.1h-3v6.7h2.9c.6 0 1.3-.1 1.9-.2.6-.1 1.1-.3 1.6-.6s.8-.6 1.1-1.1c.3-.3.4-.8.4-1.5zM605.8 366.7v-28.5h6.9v22.5h11v6h-17.9zM665.1 366.7l-2.2-5.6h-11l-2.1 5.6h-7.5l12-28.5h6.7l11.8 28.5h-7.7zm-7.6-20.9l-3.6 9.8h7.2l-3.6-9.8zM706.1 344.1v22.6h-6.9v-22.6h-8.1v-5.9h23v5.9h-8zM736.1 366.7v-28.5h19.2v5.8h-12.5v5.4h11.8v5.5h-11.8v5.9H756v5.9h-19.9z"/></svg>